<svg width="231" height="29" viewBox="0 0 231 29" fill="none" xmlns="http://www.w3.org/2000/svg">
<path d="M7.31486 24.2013L0.209859 16.4663L7.31486 8.73131H14.8399L7.69986 16.4663L14.8399 24.2013H7.31486ZM19.6972 18.9163C19.6972 16.9096 20.0705 15.148 20.8172 13.6313C21.5872 12.1146 22.6255 10.948 23.9322 10.1313C25.2389 9.31464 26.6972 8.90631 28.3072 8.90631C29.5905 8.90631 30.7572 9.17464 31.8072 9.71131C32.8805 10.248 33.7205 10.9713 34.3272 11.8813V2.81631H40.3122V28.7163H34.3272V25.9163C33.7672 26.8496 32.9622 27.5963 31.9122 28.1563C30.8855 28.7163 29.6839 28.9963 28.3072 28.9963C26.6972 28.9963 25.2389 28.588 23.9322 27.7713C22.6255 26.9313 21.5872 25.753 20.8172 24.2363C20.0705 22.6963 19.6972 20.923 19.6972 18.9163ZM34.3272 18.9513C34.3272 17.458 33.9072 16.2796 33.0672 15.4163C32.2505 14.553 31.2472 14.1213 30.0572 14.1213C28.8672 14.1213 27.8522 14.553 27.0122 15.4163C26.1955 16.2563 25.7872 17.423 25.7872 18.9163C25.7872 20.4096 26.1955 21.5996 27.0122 22.4863C27.8522 23.3496 28.8672 23.7813 30.0572 23.7813C31.2472 23.7813 32.2505 23.3496 33.0672 22.4863C33.9072 21.623 34.3272 20.4446 34.3272 18.9513ZM48.8771 7.15631C47.8271 7.15631 46.9637 6.85297 46.2871 6.24631C45.6337 5.61631 45.3071 4.84631 45.3071 3.93631C45.3071 3.00297 45.6337 2.23297 46.2871 1.62631C46.9637 0.996307 47.8271 0.681307 48.8771 0.681307C49.9037 0.681307 50.7437 0.996307 51.3971 1.62631C52.0737 2.23297 52.4121 3.00297 52.4121 3.93631C52.4121 4.84631 52.0737 5.61631 51.3971 6.24631C50.7437 6.85297 49.9037 7.15631 48.8771 7.15631ZM51.8521 9.18631V28.7163H45.8671V9.18631H51.8521ZM66.1994 23.1163L70.4344 9.18631H76.8044L69.8744 28.7163H62.4894L55.5594 9.18631H61.9644L66.1994 23.1163Z" fill="#6700EE"/>
<path d="M88.0005 18.9513C88.0005 16.9213 88.4089 15.148 89.2255 13.6313C90.0655 12.1146 91.2205 10.948 92.6905 10.1313C94.1839 9.31464 95.8872 8.90631 97.8005 8.90631C100.251 8.90631 102.292 9.54797 103.926 10.8313C105.582 12.1146 106.667 13.923 107.181 16.2563H100.811C100.274 14.763 99.2355 14.0163 97.6955 14.0163C96.5989 14.0163 95.7239 14.448 95.0705 15.3113C94.4172 16.1513 94.0905 17.3646 94.0905 18.9513C94.0905 20.538 94.4172 21.763 95.0705 22.6263C95.7239 23.4663 96.5989 23.8863 97.6955 23.8863C99.2355 23.8863 100.274 23.1396 100.811 21.6463H107.181C106.667 23.933 105.582 25.7296 103.926 27.0363C102.269 28.343 100.227 28.9963 97.8005 28.9963C95.8872 28.9963 94.1839 28.588 92.6905 27.7713C91.2205 26.9546 90.0655 25.788 89.2255 24.2713C88.4089 22.7546 88.0005 20.9813 88.0005 18.9513ZM117.592 2.81631V28.7163H111.607V2.81631H117.592ZM121.964 18.9163C121.964 16.9096 122.338 15.148 123.084 13.6313C123.854 12.1146 124.893 10.948 126.199 10.1313C127.506 9.31464 128.964 8.90631 130.574 8.90631C131.951 8.90631 133.153 9.18631 134.179 9.74631C135.229 10.3063 136.034 11.0413 136.594 11.9513V9.18631H142.579V28.7163H136.594V25.9513C136.011 26.8613 135.194 27.5963 134.144 28.1563C133.118 28.7163 131.916 28.9963 130.539 28.9963C128.953 28.9963 127.506 28.588 126.199 27.7713C124.893 26.9313 123.854 25.753 123.084 24.2363C122.338 22.6963 121.964 20.923 121.964 18.9163ZM136.594 18.9513C136.594 17.458 136.174 16.2796 135.334 15.4163C134.518 14.553 133.514 14.1213 132.324 14.1213C131.134 14.1213 130.119 14.553 129.279 15.4163C128.463 16.2563 128.054 17.423 128.054 18.9163C128.054 20.4096 128.463 21.5996 129.279 22.4863C130.119 23.3496 131.134 23.7813 132.324 23.7813C133.514 23.7813 134.518 23.3496 135.334 22.4863C136.174 21.623 136.594 20.4446 136.594 18.9513ZM156.079 28.9963C154.376 28.9963 152.859 28.7046 151.529 28.1213C150.199 27.538 149.149 26.7446 148.379 25.7413C147.609 24.7146 147.177 23.5713 147.084 22.3113H152.999C153.069 22.988 153.384 23.5363 153.944 23.9563C154.504 24.3763 155.192 24.5863 156.009 24.5863C156.756 24.5863 157.327 24.4463 157.724 24.1663C158.144 23.863 158.354 23.478 158.354 23.0113C158.354 22.4513 158.062 22.043 157.479 21.7863C156.896 21.5063 155.951 21.203 154.644 20.8763C153.244 20.5496 152.077 20.2113 151.144 19.8613C150.211 19.488 149.406 18.9163 148.729 18.1463C148.052 17.353 147.714 16.2913 147.714 14.9613C147.714 13.8413 148.017 12.8263 148.624 11.9163C149.254 10.983 150.164 10.248 151.354 9.71131C152.567 9.17464 154.002 8.90631 155.659 8.90631C158.109 8.90631 160.034 9.51297 161.434 10.7263C162.857 11.9396 163.674 13.5496 163.884 15.5563H158.354C158.261 14.8796 157.957 14.343 157.444 13.9463C156.954 13.5496 156.301 13.3513 155.484 13.3513C154.784 13.3513 154.247 13.4913 153.874 13.7713C153.501 14.028 153.314 14.3896 153.314 14.8563C153.314 15.4163 153.606 15.8363 154.189 16.1163C154.796 16.3963 155.729 16.6763 156.989 16.9563C158.436 17.3296 159.614 17.703 160.524 18.0763C161.434 18.4263 162.227 19.0096 162.904 19.8263C163.604 20.6196 163.966 21.693 163.989 23.0463C163.989 24.1896 163.662 25.2163 163.009 26.1263C162.379 27.013 161.457 27.713 160.244 28.2263C159.054 28.7396 157.666 28.9963 156.079 28.9963ZM176.821 28.9963C175.117 28.9963 173.601 28.7046 172.271 28.1213C170.941 27.538 169.891 26.7446 169.121 25.7413C168.351 24.7146 167.919 23.5713 167.826 22.3113H173.741C173.811 22.988 174.126 23.5363 174.686 23.9563C175.246 24.3763 175.934 24.5863 176.751 24.5863C177.497 24.5863 178.069 24.4463 178.466 24.1663C178.886 23.863 179.096 23.478 179.096 23.0113C179.096 22.4513 178.804 22.043 178.221 21.7863C177.637 21.5063 176.692 21.203 175.386 20.8763C173.986 20.5496 172.819 20.2113 171.886 19.8613C170.952 19.488 170.147 18.9163 169.471 18.1463C168.794 17.353 168.456 16.2913 168.456 14.9613C168.456 13.8413 168.759 12.8263 169.366 11.9163C169.996 10.983 170.906 10.248 172.096 9.71131C173.309 9.17464 174.744 8.90631 176.401 8.90631C178.851 8.90631 180.776 9.51297 182.176 10.7263C183.599 11.9396 184.416 13.5496 184.626 15.5563H179.096C179.002 14.8796 178.699 14.343 178.186 13.9463C177.696 13.5496 177.042 13.3513 176.226 13.3513C175.526 13.3513 174.989 13.4913 174.616 13.7713C174.242 14.028 174.056 14.3896 174.056 14.8563C174.056 15.4163 174.347 15.8363 174.931 16.1163C175.537 16.3963 176.471 16.6763 177.731 16.9563C179.177 17.3296 180.356 17.703 181.266 18.0763C182.176 18.4263 182.969 19.0096 183.646 19.8263C184.346 20.6196 184.707 21.693 184.731 23.0463C184.731 24.1896 184.404 25.2163 183.751 26.1263C183.121 27.013 182.199 27.713 180.986 28.2263C179.796 28.7396 178.407 28.9963 176.821 28.9963ZM209.427 9.36131V14.6463H189.827V9.36131H209.427ZM209.427 18.2863V23.5713H189.827V18.2863H209.427ZM216.577 4.14631H222.702L218.782 13.5263H214.757L216.577 4.14631ZM224.522 4.14631H230.647L226.727 13.5263H222.702L224.522 4.14631Z" fill="#D9D9D9"/>
</svg>
